<svg xmlns="http://www.w3.org/2000/svg" xmlns:xlink="http://www.w3.org/1999/xlink" xml:space="preserve" id="Layer_1" x="0" y="0" style="enable-background:new 0 0 560 389" version="1.1" viewBox="0 0 560 389"><style>.st4{fill:#fff}.st8{fill:#ff6a58}.st10{fill:#ffb6ad}.st12,.st14,.st18{fill-rule:evenodd;clip-rule:evenodd;fill:#ee6c4d}.st14,.st18{fill:#8fbc5d}.st18{fill:#dab400}.st21{fill:#fff}.st21,.st22{fill-rule:evenodd;clip-rule:evenodd}.st22,.st23{fill:#f2e7ef}.st25{fill:#fff;stroke:#c2c2cc;stroke-width:.5}.st26{fill:#c2c2cc}.st33{fill:#fde4df}</style><path d="m43.7 104.2 39.8-39.8c3.1-3.1 8.2-3.1 11.3 0l17.3 17.3c3.1 3.1 3.1 8.2 0 11.3l-39.8 39.8c-3.1 3.1-8.2 3.1-11.3 0l-17.3-17.3c-3.1-3.2-3.1-8.2 0-11.3z" style="fill:none;stroke:#2bb4c0;stroke-width:2;stroke-miterlimit:4"/><path d="M48.5 86c-1.6-1.6-1.6-4.1 0-5.7l13.4-13.4c1.6-1.6 4.1-1.6 5.7 0L81 80.3c1.6 1.6 1.6 4.1 0 5.7L67.5 99.4c-1.6 1.6-4.1 1.6-5.7 0L48.5 86z" style="fill:#7ad8e1"/><path d="M51.9 236.6c0 .8.6 1.4 1.5 1.4l6.7.2-9.1 7.7c-.6.5-.6 1.4-.1 1.9.6.6 1.5.6 2.1.1l9.1-7.7-.2 6c0 .8.6 1.4 1.5 1.4.8 0 1.5-.6 1.6-1.3l.4-9.3c0-.2 0-.4-.1-.5-.1-.3-.4-.6-.8-.8-.2-.1-.4-.1-.6-.1l-10.3-.3c-.9 0-1.6.6-1.7 1.3z" style="fill-rule:evenodd;clip-rule:evenodd;fill:#4acd86"/><path d="M541.2 313.9c.3 0 .6-.3.6-.6s-.3-.6-.6-.6h-2.8l3.6-3.3c.2-.2.2-.6 0-.8-.2-.2-.6-.2-.9 0l-3.6 3.3v-2.5c0-.3-.3-.6-.6-.6s-.6.3-.6.6v4.1l.3.3H541.2v.1z" style="fill:#ee6c4d"/><path d="M94.2 97.1h289c4.4 0 8 3.6 8 8v234.6c0 4.4-3.6 8-8 8h-289c-4.4 0-8-3.6-8-8V105.1c0-4.4 3.6-8 8-8z" class="st4"/><path d="M39.5 357.1c21.8 14.7 51.4 8.9 66.1-12.9 9.7-14.4 10.5-32.3 3.5-47 .3-.1.6-.3.8-.6l12.9-14.6c1.3-1.4 0-3.7-1.9-3.3l-21.7 4.6c-2-1.9-4.2-3.7-6.5-5.3-21.8-14.7-51.4-8.9-66.1 12.9-14.7 21.9-8.9 51.5 12.9 66.2z" style="fill-rule:evenodd;clip-rule:evenodd;fill:#f5f5fa"/><defs><filter id="Adobe_OpacityMaskFilter" width="106.9" height="97.2" x="17.5" y="269" filterUnits="userSpaceOnUse"><feColorMatrix values="1 0 0 0 0 0 1 0 0 0 0 0 1 0 0 0 0 0 1 0"/></filter></defs><mask id="path-6-inside-1_623_19630_00000099656138761907048670000009537112433469533330_" width="106.9" height="97.2" x="17.5" y="269" maskUnits="userSpaceOnUse"><path d="M39.5 357.1c21.8 14.7 51.4 8.9 66.1-12.9 9.7-14.4 10.5-32.3 3.5-47 .3-.1.6-.3.8-.6l12.9-14.6c1.3-1.4 0-3.7-1.9-3.3l-21.7 4.6c-2-1.9-4.2-3.7-6.5-5.3-21.8-14.7-51.4-8.9-66.1 12.9-14.7 21.9-8.9 51.5 12.9 66.2z" style="fill-rule:evenodd;clip-rule:evenodd;fill:#fff;filter:url(#Adobe_OpacityMaskFilter)"/></mask><path d="m109.1 297.2-.3-.9-1.1.4.5 1 .9-.5zm.8-.6.8.7-.8-.7zm12.9-14.6-.8-.7.8.7zm-1.9-3.2.2 1-.2-1zm-21.7 4.6-.7.7.4.4.5-.1-.2-1zm5.5 60.2c-14.4 21.3-43.3 27-64.7 12.6l-1.1 1.7c22.3 15 52.5 9.1 67.5-13.2l-1.7-1.1zm3.5-46c6.8 14.4 6.1 31.8-3.5 46l1.7 1.1c9.9-14.7 10.7-33 3.6-47.9l-1.8.8zm1.2.6c.5-.2.9-.5 1.3-.9l-1.5-1.3c-.1.1-.3.2-.4.3l.6 1.9zm1.3-.9 12.9-14.6-1.5-1.3-12.9 14.6 1.5 1.3zm12.9-14.6c1.9-2.2-.1-5.5-2.9-4.9l.4 2c.9-.2 1.6.9 1 1.6l1.5 1.3zm-2.9-4.9L99 282.4l.4 2 21.7-4.6-.4-2zm-28.6 1.1c2.3 1.6 4.5 3.3 6.4 5.2l1.4-1.4c-2-2-4.3-3.8-6.7-5.4l-1.1 1.6zm-64.7 12.7c14.4-21.3 43.3-27 64.7-12.6l1.1-1.7c-22.3-15-52.5-9.1-67.5 13.2l1.7 1.1zM40 356.2c-21.4-14.4-27-43.3-12.6-64.7l-1.7-1.1c-15 22.3-9.1 52.5 13.2 67.4l1.1-1.6z" style="mask:url(#path-6-inside-1_623_19630_00000099656138761907048670000009537112433469533330_);fill:#c2c2cc"/><path d="M83.4 328.6c.2.4.3.9.3 1.3 0 .8-.3 1.4-1 2-.6.5-1.3.8-2.2.8-.5 0-1.1-.1-1.5-.4-.5-.3-.9-.8-1.1-1.4l-3.1-6.7H56.7l-3.1 6.7c-.3.6-.6 1.1-1.1 1.4-.5.3-1 .4-1.6.4-.8 0-1.5-.3-2.2-.8s-1-1.2-1-2c0-.4.1-.9.3-1.3l14.2-29.7c.3-.7.8-1.2 1.4-1.5.6-.4 1.3-.6 2.1-.6.7 0 1.4.2 2 .6.6.3 1.1.8 1.4 1.5l14.3 29.7zM59 319.2h13.5l-6.8-14.9-6.7 14.9z" class="st8"/><path d="M408.3 96.2h109.1c4.4 0 8 3.6 8 8v234.6c0 4.4-3.6 8-8 8H408.3c-4.4 0-8-3.6-8-8V104.2c0-4.4 3.5-8 8-8z" class="st4"/><path d="m539.1 258.2 6.2-6.2c1.6-1.6 4.1-1.6 5.7 0l6.2 6.2c1.6 1.6 1.6 4.1 0 5.7l-6.2 6.2c-1.6 1.6-4.1 1.6-5.7 0l-6.2-6.2c-1.5-1.6-1.5-4.1 0-5.7z" style="fill:#4a7aab"/><path d="M85.8 104.7c0-4.4 3.6-8 8-8h289.4c4.4 0 8 3.6 8 8v4H85.8v-4z" class="st10"/><defs><path id="SVGID_1_" d="M219.5 326.3h42.6v42.6h-42.6z" transform="rotate(-12.38 240.77 347.607)"/></defs><clipPath id="SVGID_00000132071309926229012340000009569513834544127933_"><use xlink:href="#SVGID_1_" style="overflow:visible"/></clipPath><g style="clip-path:url(#SVGID_00000132071309926229012340000009569513834544127933_)"><path d="m220.1 330.7 18.1-4c1.5-.3 2.1-.3 2.7-.1.6.2 1.1.5 1.5 1 .4.5.7 1 1 2.5l4 18.1c.3 1.5.3 2.1.1 2.7-.2.6-.5 1.1-1 1.5-.5.4-1 .7-2.5 1l-18.1 4c-1.5.3-2.1.3-2.7.1-.6-.2-1.1-.5-1.5-1s-.7-1-1-2.5l-4-18.1c-.3-1.5-.3-2.1-.1-2.7.2-.6.5-1.1 1-1.5.5-.4 1-.7 2.5-1z" class="st12"/><path d="m261.6 364.6-18.1 4c-1.5.3-2.1.3-2.7.1-.6-.2-1.1-.5-1.5-1-.4-.5-.7-1-1-2.5l-4-18.1c-.3-1.5-.3-2.1-.1-2.7.2-.6.5-1.1 1-1.5.5-.4 1-.7 2.5-1l18.1-4c1.5-.3 2.1-.3 2.7-.1.6.2 1.1.5 1.5 1 .4.5.7 1 1 2.5l4 18.1c.3 1.5.3 2.1.1 2.7-.2.6-.5 1.1-1 1.5-.5.4-1 .7-2.5 1z" class="st12"/><path d="M232.3 337.3c-.4.1-.7.5-.6.9l.7 3.2-7.3-4.6c-.3-.2-.8-.1-1 .2-.2.3-.1.8.2 1l7.3 4.6-3.2.7c-.4.1-.7.5-.6.9.1.4.5.6.9.6l5-1.1c.1 0 .2-.1.3-.1.2-.1.3-.3.3-.5v-.3l-1.1-4.9c-.1-.5-.5-.7-.9-.6zM249.5 358c.4-.1.7-.5.6-.9l-.7-3.2 7.3 4.6c.3.2.8.1 1-.2.2-.3.1-.8-.2-1l-7.3-4.6 3.2-.7c.4-.1.7-.5.6-.9-.1-.4-.5-.6-.9-.6l-5 1.1c-.1 0-.2.1-.3.1-.2.1-.3.3-.3.5v.3l1.1 4.9c.1.4.5.6.9.6zM238.1 351.6c.4.2.8.1 1.1-.2.2-.4.1-.8-.2-1.1-.4-.2-.8-.1-1.1.2-.2.4-.1.9.2 1.1zM240.3 348.2c.4.2.8.1 1.1-.2.2-.4.1-.8-.2-1.1-.4-.2-.8-.1-1.1.2-.2.4-.1.9.2 1.1zM242.5 344.8c.4.2.8.1 1.1-.2.2-.4.1-.8-.2-1.1-.4-.2-.8-.1-1.1.2-.3.4-.1.9.2 1.1z" class="st4"/></g><defs><path id="SVGID_00000032632146507986407220000015745152725499943851_" d="M381.6 153.5h29.6v29.6h-29.6z" transform="rotate(-74.919 396.36 168.264)"/></defs><clipPath id="SVGID_00000160178796450415450780000012888261589256855181_"><use xlink:href="#SVGID_00000032632146507986407220000015745152725499943851_" style="overflow:visible"/></clipPath><g style="clip-path:url(#SVGID_00000160178796450415450780000012888261589256855181_)"><path d="m399.6 171 8.5 2.3c.7.2.9.3 1.2.5.2.2.4.5.4.8.1.3.1.6-.1 1.3l-2.3 8.5c-.2.7-.3.9-.5 1.2-.2.2-.5.4-.8.4-.3.1-.6.1-1.3-.1l-8.5-2.3c-.7-.2-.9-.3-1.2-.5-.2-.2-.4-.5-.4-.8-.1-.3-.1-.6.1-1.3l2.3-8.5c.2-.7.3-.9.5-1.2.2-.2.5-.4.8-.4.4-.1.6-.1 1.3.1zM403.9 155l8.5 2.3c.7.2.9.3 1.2.5.2.2.4.5.4.8.1.3.1.6-.1 1.3l-2.3 8.5c-.2.7-.3.9-.5 1.2-.2.2-.5.4-.8.4-.3.1-.6.1-1.3-.1l-8.5-2.3c-.7-.2-.9-.3-1.2-.5-.2-.2-.4-.5-.4-.8-.1-.3-.1-.6.1-1.3l2.3-8.5c.2-.7.3-.9.5-1.2.2-.2.5-.4.8-.4.4-.1.6-.1 1.3.1zM383.7 166.7l8.5 2.3c.7.2.9.3 1.2.5.2.2.4.5.4.8.1.3.1.6-.1 1.3l-2.3 8.5c-.2.7-.3.9-.5 1.2-.2.2-.5.4-.8.4-.3.1-.6.1-1.3-.1l-8.5-2.3c-.7-.2-.9-.3-1.2-.5-.2-.2-.4-.5-.4-.8-.1-.3-.1-.6.1-1.3l2.3-8.5c.2-.7.3-.9.5-1.2.2-.2.5-.4.8-.4.3-.1.6-.1 1.3.1zM388 150.7l8.5 2.3c.7.2.9.3 1.2.5.2.2.4.5.4.8.1.3.1.6-.1 1.3l-2.3 8.5c-.2.7-.3.9-.5 1.2-.2.2-.5.4-.8.4-.3.1-.6.1-1.3-.1l-8.5-2.3c-.7-.2-.9-.3-1.2-.5-.2-.2-.4-.5-.4-.8-.1-.3-.1-.6.1-1.3l2.3-8.5c.2-.7.3-.9.5-1.2.2-.2.5-.4.8-.4.3-.1.6-.1 1.3.1z" class="st14"/><path d="M399.5 179.4c-.1.3.1.6.4.6.3.1.6-.1.6-.4l.6-2.2 2.2 3.7c.1.2.5.3.7.2.2-.1.3-.5.2-.7L402 177l2.2.6c.3.1.6-.1.6-.4.1-.3-.1-.6-.4-.6l-3.5-.9h-.2c-.1 0-.3.1-.3.2s-.1.1-.1.2l-.8 3.3zM407.7 165.5c.3.1.6-.1.6-.4.1-.3-.1-.6-.4-.6l-2.2-.6 3.7-2.2c.2-.1.3-.5.2-.7-.1-.2-.5-.3-.7-.2l-3.7 2.2.6-2.2c.1-.3-.1-.6-.4-.6-.3-.1-.6.1-.6.4l-.9 3.4v.2c0 .1.1.3.2.3s.1.1.2.1l3.4.9zM385.4 171.4c-.3-.1-.6.1-.6.4-.1.3.1.6.4.6l2.2.6-3.7 2.2c-.2.1-.3.5-.2.7.1.2.5.3.7.2l3.7-2.2-.6 2.2c-.1.3.1.6.4.6.3.1.6-.1.6-.4l.9-3.5v-.2c0-.1-.1-.3-.2-.3s-.1-.1-.2-.1l-3.4-.8zM393.1 156.7c-.3-.1-.6.1-.6.4l-.6 2.2-2.2-3.7c-.1-.2-.5-.3-.7-.2-.2.1-.3.5-.2.7l2.2 3.7-2.2-.6c-.3-.1-.6.1-.6.4-.1.3.1.6.4.6l3.5.9h.2c.1 0 .3-.1.3-.2s.1-.1.1-.2l.9-3.4c-.1-.2-.2-.5-.5-.6z" class="st4"/></g><defs><path id="SVGID_00000036216605493786411640000004815343152003202459_" d="M70.9 163.9h45.6v45.6H70.9z" transform="rotate(-11.246 93.714 186.701)"/></defs><clipPath id="SVGID_00000136376660777456309320000011427736748034879628_"><use xlink:href="#SVGID_00000036216605493786411640000004815343152003202459_" style="overflow:visible"/></clipPath><g style="clip-path:url(#SVGID_00000136376660777456309320000011427736748034879628_)"><path d="m96.2 209.4 19.6-3.9c1.6-.3 2.2-.6 2.7-1s.9-1 1.1-1.6c.2-.7.2-1.3-.1-2.9l-3.9-19.6c-.3-1.6-.6-2.2-1-2.7s-1-.9-1.6-1.1c-.7-.2-1.3-.2-2.9.1l-9.4 1.9 1.7 8.5c.4 2.2.4 3.1.1 4-.3.9-.8 1.7-1.5 2.2-.7.6-1.5 1-3.7 1.4l-8.5 1.7 1.9 9.4c.3 1.6.6 2.2 1 2.7s1 .9 1.6 1.1c.7.1 1.3.1 2.9-.2z" style="fill-rule:evenodd;clip-rule:evenodd;fill:#ffd400"/><path d="M112.8 194.2c-.1-.4-.5-.7-.9-.6-.4.1-.7.5-.6.9l.7 3.4-5.5-3.6c-.4-.2-.9-.1-1.1.2s-.2.9.2 1.1l5.5 3.6-3.5.7c-.4.1-.7.5-.6.9.1.4.5.7.9.6l5.4-1.1c.1 0 .2-.1.3-.1.2-.1.3-.3.3-.5v-.3l-1.1-5.2z" class="st4"/><path d="m71.6 167.9 19.6-3.9c1.6-.3 2.2-.3 2.9-.1.7.2 1.2.6 1.6 1.1s.7 1.1 1 2.7l3.9 19.6c.3 1.6.3 2.2.1 2.9-.2.7-.6 1.2-1.1 1.6-.5.4-1.1.7-2.7 1l-19.6 3.9c-1.6.3-2.2.3-2.9.1-.7-.2-1.2-.6-1.6-1.1-.4-.5-.7-1.1-1-2.7l-3.9-19.6c-.3-1.6-.3-2.2-.1-2.9.2-.7.6-1.2 1.1-1.6.5-.4 1-.7 2.7-1z" style="fill-rule:evenodd;clip-rule:evenodd;fill:#fff3b6"/><path d="M89.9 172.1c1-.2 1.9.4 2.1 1.4.2 1-.4 1.9-1.4 2.1-1 .2-1.9-.4-2.1-1.4-.2-.9.4-1.9 1.4-2.1zM82.4 185.7l-5.7 1.1c-.1 0-.2 0-.2-.1-.1-.1-.1-.1 0-.2l3.9-11c.1-.1.3-.2.4-.1l4.6 5.1 1.8-2.8c0-.1.1-.1.1-.1h.2l6.7 5.3c.1 0 .1.1.1.2s-.1.2-.2.3l-5.7 1.1-6 1.2z" class="st18"/></g><defs><path id="SVGID_00000032639424652252734380000009453079673917657499_" d="M441.3 320.3h41.3v41.3h-41.3z"/></defs><clipPath id="SVGID_00000183932965357548413360000003486078031921233585_"><use xlink:href="#SVGID_00000032639424652252734380000009453079673917657499_" style="overflow:visible"/></clipPath><g style="clip-path:url(#SVGID_00000183932965357548413360000003486078031921233585_)"><path d="M447.9 320.3h28c2.3 0 3.1.2 4 .7.8.4 1.5 1.1 2 1.9.4.8.7 1.7.7 4v28c0 2.3-.2 3.1-.7 4-.5.8-1.1 1.5-2 1.9-.8.4-1.7.7-4 .7h-28c-2.3 0-3.1-.2-4-.7-.8-.4-1.5-1.1-2-1.9-.4-.8-.7-1.7-.7-4v-28c0-2.3.2-3.1.7-4 .5-.8 1.1-1.5 2-1.9.9-.4 1.7-.7 4-.7z" style="fill-rule:evenodd;clip-rule:evenodd;fill:#ab6993"/><path d="M464.8 337.3c.1-.3.5-.5.8-.2l1.5 1.2c.3.2.2.7-.1.8l-2.2 1.1c-.1 0-.1 0-.2.1h-.1c-.2 0-.3 0-.4-.1-.2-.1-.2-.3-.2-.6v-.1l.9-2.2zM471.7 328.4c.6-.7 1.6-.8 2.4-.3l.1.1.4.4c.4.3.6.7.6 1.2 0 .4-.1.8-.3 1.2l-.1.1-5.8 6.8c-.4.4-1 .5-1.4.1l-1.5-1.3c-.4-.4-.5-1-.1-1.4l5.7-6.9z" class="st21"/><path d="M457.5 346.1c0-.3.3-.6.6-.6h3c.3 0 .6.3.6.6s-.3.6-.6.6h-3c-.3.1-.6-.2-.6-.6zM457.5 336c0-.3.3-.6.6-.6h3c.3 0 .6.3.6.6s-.3.6-.6.6h-3c-.3 0-.6-.2-.6-.6z" class="st22"/><path d="M459.6 336.1c.3 0 .6.3.6.6v8.9c0 .3-.3.6-.6.6s-.6-.3-.6-.6v-8.9c-.1-.3.2-.6.6-.6z" class="st22"/><path d="M451.2 329.8c-.2 0-.4.2-.4.4v21.4c0 .2.2.4.4.4h21.5c.2 0 .4-.2.4-.4v-13.9c0-.2-.2-.4-.4-.4s-.4.2-.4.4v13.5h-20.6v-20.6H466c.2 0 .4-.2.4-.4s-.2-.4-.4-.4h-14.8z" class="st4"/><path d="M451.2 327.8c1.4 0 2.5 1.1 2.5 2.5s-1.1 2.5-2.5 2.5-2.5-1.1-2.5-2.5c.1-1.4 1.2-2.5 2.5-2.5zM451.2 349.2c1.4 0 2.5 1.1 2.5 2.5s-1.1 2.5-2.5 2.5-2.5-1.1-2.5-2.5c.1-1.4 1.2-2.5 2.5-2.5zM472.7 349.2c1.4 0 2.5 1.1 2.5 2.5s-1.1 2.5-2.5 2.5-2.5-1.1-2.5-2.5 1.1-2.5 2.5-2.5z" class="st23"/></g><path d="m466.4 36.5 24.7 7.2c2 .6 2.7 1 3.3 1.6.6.6 1 1.4 1.2 2.2.2.9.2 1.7-.4 3.7L487.9 76c-.6 2-1 2.7-1.6 3.3-.6.6-1.4 1-2.2 1.2-.9.2-1.7.2-3.7-.4l-24.7-7.2c-2-.6-2.7-1-3.3-1.6-.6-.6-1-1.4-1.2-2.2-.2-.9-.2-1.7.4-3.7l7.2-24.7c.6-2 1-2.7 1.6-3.3.6-.6 1.4-1 2.2-1.2.9-.3 1.7-.3 3.8.3z" style="fill-rule:evenodd;clip-rule:evenodd;fill:#4a7aab"/><path d="m468.2 55.1-3.4 10.6c0 .1 0 .2.1.2h.2l5.1-4.9c-.5-.8-.3-1.8.3-2.5.8-.8 2.1-.7 2.9.1.8.8.7 2.1-.1 2.9-.7.7-1.7.7-2.5.2l-5.1 4.9c-.1.1-.1.2 0 .2 0 0 .1.1.2 0l10.7-2.9c.3-.1.5-.3.7-.6l2.6-6.4c.1-.4.1-.8-.2-1.1l-3.3-3.4c-.3-.3-.7-.4-1.1-.3l-6.5 2.3c-.2.1-.5.4-.6.7zM481 56.1l-4.8-5c-.3-.3-.2-.7.1-1.1l2-1.9c.3-.3.8-.4 1.1-.1l4.8 5c.3.3.2.7-.1 1.1l-2 1.9c-.4.3-.9.4-1.1.1z" class="st4"/><path d="M416.3 246.7h94.5c1 0 1.8.8 1.8 1.8v10.8c0 1-.8 1.8-1.8 1.8h-94.5c-1 0-1.8-.8-1.8-1.8v-10.8c.1-1 .9-1.8 1.8-1.8zM416.3 268.3h94.5c1 0 1.8.8 1.8 1.8v10.8c0 1-.8 1.8-1.8 1.8h-94.5c-1 0-1.8-.8-1.8-1.8V270c.1-1 .9-1.7 1.8-1.7z" class="st25"/><path d="M414.3 177.3c0-.6.4-1 1-1h17.1v18.1h-18.1v-17.1z" class="st4"/><path d="M432.4 176.3h18.1v18.1h-18.1zM450.5 176.3h17.1c.6 0 1 .4 1 1v17.1h-18.1v-18.1z" class="st4"/><path d="M414.3 194.3h18.1v18.1h-18.1z" class="st4"/><path d="M432.4 194.3h18.1v18.1h-18.1zM450.5 194.3h18.1v18.1h-18.1zM414.3 212.4h18.1v18.1h-17.1c-.6 0-1-.4-1-1v-17.1z" class="st4"/><path d="M432.4 212.4h18.1v18.1h-18.1zM450.5 212.4h18.1v17.1c0 .6-.4 1-1 1h-17.1v-18.1z" class="st4"/><circle cx="423.4" cy="185.3" r="1.1" class="st26"/><circle cx="441.4" cy="185.3" r="1.1" class="st26"/><circle cx="459.5" cy="185.3" r="1.1" class="st26"/><circle cx="423.4" cy="203.4" r="1.1" class="st26"/><circle cx="441.4" cy="203.4" r="1.1" class="st26"/><circle cx="459.5" cy="203.4" r="1.1" class="st26"/><circle cx="423.4" cy="221.4" r="1.1" class="st26"/><circle cx="441.4" cy="221.4" r="1.1" class="st26"/><circle cx="459.5" cy="221.4" r="1.1" class="st26"/><path d="M415.3 176.8h52.2c.3 0 .5.2.5.5v52.2c0 .3-.2.5-.5.5h-52.2c-.3 0-.5-.2-.5-.5v-52.2c0-.3.3-.5.5-.5z" style="fill:none;stroke:#c2c2cc"/><circle cx="423.2" cy="221.4" r="6.8" style="fill:#e5322d"/><path d="M421.4 116.2h83.8" style="fill:none;stroke:#d6d6df;stroke-width:8;stroke-linecap:round"/><path d="M420 129.3h44.1" style="fill:none;stroke:#d6d6df;stroke-width:4;stroke-linecap:round"/><defs><path id="SVGID_00000072990738566660945930000010511589644637428658_" d="M181.7 128.5h131.8V304H181.7z" transform="rotate(-6.892 247.572 216.229)"/></defs><clipPath id="SVGID_00000078741314929556830460000005130464093742622398_"><use xlink:href="#SVGID_00000072990738566660945930000010511589644637428658_" style="overflow:visible"/></clipPath><g style="clip-path:url(#SVGID_00000078741314929556830460000005130464093742622398_)"><path d="m280 125.6 22.6 17.7c.8.6 1.3 1.5 1.4 2.5l17 140.8c.6 4.7-2.8 9-7.5 9.6l-111.7 13.5c-4.7.6-9-2.8-9.6-7.5l-18.9-156.1c-.6-4.7 2.8-9 7.6-9.6l96.4-11.7c.9-.1 1.9.2 2.7.8z" style="fill:#fff;stroke:#c2c2cc"/><path d="M278.6 146c.3 2.4 2.5 4.1 4.8 3.8l19-2.3c.6-.1.9-.9.4-1.3l-25.3-19.8c-.5-.4-1.2 0-1.1.6l2.2 19z" class="st10"/><path d="m266.1 224-63.3 7.7c-1 .1-1.6 1-1.5 1.9l5.7 47.2c.1.9 1 1.6 1.9 1.5l63.3-7.7c1-.1 1.6-1 1.5-1.9l-5.7-47.2c-.1-.9-1-1.6-1.9-1.5z" class="st8"/><path d="m206.2 271.3 10.3-10.4c1-1 2.5-1.1 3.6-.4l10.6 6.5c1.3.8 3 .4 3.9-.9l13.7-22.3c.9-1.4 2.9-1.7 4.1-.5l20.2 20c.2.2.4.5.4.8l1.9 15.4c.1.8-.5 1.4-1.2 1.5l-64.2 7.8c-.8.1-1.4-.4-1.5-1.2l-2-15.2c-.3-.4-.1-.8.2-1.1zM229.9 251.9c2.7-.3 4.7-2.8 4.3-5.5-.3-2.7-2.8-4.6-5.5-4.3s-4.7 2.8-4.3 5.5c.3 2.8 2.7 4.7 5.5 4.3z" class="st33"/><path d="M289.2 165.7 195.6 177c-.7.1-1.3.8-1.2 1.5l.2 2c.1.7.8 1.3 1.5 1.2l93.6-11.3c.7-.1 1.3-.8 1.2-1.5l-.2-2c-.1-.8-.8-1.3-1.5-1.2zM291.8 186.4l-93.6 11.3c-.7.1-1.3.8-1.2 1.5l.2 2c.1.7.8 1.3 1.5 1.2l93.6-11.3c.7-.1 1.3-.8 1.2-1.5l-.2-2c-.1-.8-.8-1.3-1.5-1.2zM292.6 194.1 199 205.4c-.7.1-1.3.8-1.2 1.5l.2 2c.1.7.8 1.3 1.5 1.2l93.6-11.3c.7-.1 1.3-.8 1.2-1.5l-.2-2c0-.7-.7-1.3-1.5-1.2zM249.6 178.6l-52.8 6.4c-.9.1-1.5.9-1.4 1.7l.2 1.6c.1.9.9 1.5 1.8 1.4l52.8-6.4c.9-.1 1.5-.9 1.4-1.7l-.2-1.6c-.1-.9-.9-1.5-1.8-1.4zM253.1 206.7l-52.8 6.4c-.9.1-1.5.9-1.4 1.7l.2 1.6c.1.9.9 1.5 1.8 1.4l52.8-6.4c.9-.1 1.5-.9 1.4-1.7l-.2-1.6c-.2-.9-1-1.5-1.8-1.4z" class="st8"/></g><path d="M368.2 6c5.5 0 10 4.5 10 10v60.8c0 5.5-4.5 10-10 10h-81.9c-.1.2-.2.4-.4.6l-18.2 18.9c-1.3 1.4-3.7.3-3.4-1.6l2.3-17.9h-8.7c-5.5 0-10-4.5-10-10V16c0-5.5 4.5-10 10-10h110.3z" style="fill-rule:evenodd;clip-rule:evenodd;fill:#fde4df"/><path d="M315.1 25.4c0-1.1-.9-2-2-2s-2 .9-2 2v4.1h-15.4c-1.1 0-2 .9-2 2s.9 2 2 2h7.1c-.5 8.5 2.6 15 6.9 19.9-5.1 4.3-11.3 6.7-15.5 7.5-1.1.2-1.8 1.3-1.6 2.4.2 1.1 1.3 1.8 2.4 1.6 4.8-1 11.8-3.7 17.5-8.6 5.7 5 12.8 7.7 17.5 8.6 1.1.2 2.1-.5 2.4-1.6.2-1.1-.5-2.1-1.6-2.4-4.2-.8-10.4-3.2-15.5-7.5 4.3-4.9 7.4-11.4 6.9-19.9h7c1.1 0 2-.9 2-2s-.9-2-2-2H315v-4.1zm-8.4 8.1h11.6v.1c.4 7.2-2.1 12.8-5.8 17-3.7-4.2-6.2-9.7-5.8-17v-.1z" style="fill-rule:evenodd;clip-rule:evenodd;fill:#ff6a58"/></svg>