<svg xmlns="http://www.w3.org/2000/svg" width="48" height="48" fill="none"><g clip-path="url(#a)"><path fill="#BCD1E6" d="M23.37 33.026 42.812 5a3.151 3.151 0 0 0-4.9-3.949L14.664 26.013l-.017.02-4.037 8.715a1.445 1.445 0 0 0 .404 1.733l2.904 2.34c.517.415 1.25.426 1.779.026l7.656-5.8.016-.02Z"/><path fill="#5F83C6" d="M42.237.697a3.213 3.213 0 0 0-.384-.266l-22.19 28.887-.017.021-6.731 8.673 1.004.808c.516.416 1.25.427 1.779.027l7.655-5.8.017-.021L42.812 5a3.151 3.151 0 0 0-.575-4.303Z"/><path fill="#1D4772" d="m12.076 35.013-5.849 3.933c-.314.211-.525.545-.582.919l-.948 6.286a.831.831 0 0 0 1.118.9l5.94-2.265a1.35 1.35 0 0 0 .774-.763l2.598-6.553-3.05-2.457Zm-1.562 7.284a1.395 1.395 0 1 1-2.172-1.75 1.395 1.395 0 0 1 2.172 1.75Z"/><path fill="#EBF5FF" d="m34.598 4.609 5.443 4.385 1.91-2.752-5.07-4.085-2.283 2.452Z"/><path fill="#9CF" d="m37.101 6.617 2.949 2.365 1.909-2.752-2.822-2.263-2.036 2.65Z"/><path fill="#1D4772" d="M9.112 42.959a.707.707 0 0 0 .097-.16 1.385 1.385 0 0 1-1.079-.87.724.724 0 0 0-.136.13L4.697 46.15a.831.831 0 0 0 1.118.9l3.297-4.092Z"/><path fill="#FFC233" d="m23.319 33.02-8.636-6.959-.035-.027-4.037 8.714a1.445 1.445 0 0 0 .404 1.733l2.904 2.34c.517.415 1.25.426 1.779.026l7.656-5.8-.035-.028Z"/><path fill="#FFC233" d="m19.301 29.782-6.386 8.23 1.004.808c.516.417 1.25.427 1.779.027l7.655-5.8-.034-.028-4.018-3.236Z"/><path fill="#0062C5" d="M25.535 48c-1.286 0-2.497-.253-3.49-.958a4.571 4.571 0 0 1-.843-.775c-1.808 1.162-3.73 1.567-5.332 1.65a.718.718 0 1 1-.075-1.433c1.774-.092 3.325-.57 4.647-1.425-.375-.811-.616-1.794-.728-2.96-.272-2.83 1.27-4.87 2.92-5.639 1.098-.511 2.19-.412 2.85.26.64.653 1.11 2.03-.286 4.88-.806 1.65-1.786 2.883-2.844 3.802.16.178.333.335.522.47 1.58 1.122 4.288.654 6.472.12 4.83-1.179 9.647.308 9.85.372a.717.717 0 1 1-.432 1.369c-.045-.015-4.647-1.428-9.078-.346-1.353.33-2.794.613-4.153.613Zm-1.538-10.431a1.85 1.85 0 0 0-.756.192c-1.645.766-2.241 2.714-2.098 4.2.082.854.238 1.58.472 2.185.903-.838 1.669-1.897 2.294-3.176.917-1.874.87-2.919.55-3.244-.104-.105-.265-.157-.462-.157Z"/></g><defs><clipPath id="a"><path fill="#fff" d="M0 0h48v48H0z"/></clipPath></defs></svg>