<svg xmlns="http://www.w3.org/2000/svg" width="48" height="48" fill="none"><g clip-path="url(#a)"><path fill="#F2E7EF" d="M5 4h38v38H5z"/><path fill="#E1C4D6" d="M8.11 3.352h31.78v2.812H8.11V3.352ZM8.11 41.836h31.78v2.812H8.11v-2.812Z"/><path fill="#AB6993" d="M24 3.352h15.89v2.812H24V3.352ZM24 41.836h15.89v2.812H24v-2.812ZM35.339 13.313v5.168h-2.813v-2.356h-7.12v16.017h2.438v2.813h-7.688v-2.813h2.438V16.125h-7.12v2.356H12.66v-5.169h22.678Z"/><path fill="#E1C4D6" d="M3.352 8.11h2.812v31.359H3.352V8.109Z"/><path fill="#AB6993" d="M41.836 8.11h2.812v31.359h-2.812V8.109Z"/><path fill="#EE6C4D" d="M5.406 10.813a5.412 5.412 0 0 0 5.407-5.407A5.412 5.412 0 0 0 5.405 0 5.412 5.412 0 0 0 0 5.406a5.412 5.412 0 0 0 5.406 5.407ZM5.406 37.188A5.412 5.412 0 0 0 0 42.593 5.412 5.412 0 0 0 5.406 48a5.412 5.412 0 0 0 5.407-5.406 5.412 5.412 0 0 0-5.407-5.407Z"/><path fill="#FF7651" d="M42.594 10.813A5.412 5.412 0 0 0 48 5.405 5.412 5.412 0 0 0 42.594 0a5.412 5.412 0 0 0-5.407 5.406 5.412 5.412 0 0 0 5.407 5.407ZM42.594 37.188a5.412 5.412 0 0 0-5.407 5.406A5.412 5.412 0 0 0 42.594 48 5.413 5.413 0 0 0 48 42.594a5.412 5.412 0 0 0-5.406-5.407Z"/><path fill="#AB6993" d="M27.844 34.955H24V13.313h11.34v5.168h-2.813v-2.356h-7.12v16.017h2.437v2.813Z"/></g><defs><clipPath id="a"><path fill="#fff" d="M0 0h48v48H0z"/></clipPath></defs></svg>