<svg xmlns="http://www.w3.org/2000/svg" width="48" height="48" fill="none"><path fill="#FFEB85" fill-rule="evenodd" d="M36.231 36.731h3.06c.436 0 .81.216 1.028.594l1.342 2.321h4.544c.576 0 1.045.47 1.045 1.046v5.14c0 .576-.47 1.046-1.045 1.046H36.23c-.576 0-1.046-.47-1.046-1.045v-8.056c0-.576.47-1.046 1.046-1.046Z" clip-rule="evenodd"/><path fill="#FFD400" fill-rule="evenodd" d="M45.844 39.646h.36a1.045 1.045 0 0 1 1.046 1.046v5.14c0 .576-.47 1.046-1.045 1.046H45.3c.323-.178.543-.522.543-.916v-6.316ZM41.661 39.646l-1.342-2.321a1.16 1.16 0 0 0-1.028-.594h-3.06c-.576 0-1.046.47-1.046 1.046v1.87h6.476Z" clip-rule="evenodd"/><path fill="#FFEB85" fill-rule="evenodd" d="M19.013 36.731h3.06c.436 0 .81.216 1.028.594l1.343 2.321h4.543c.576 0 1.046.47 1.046 1.046v5.14c0 .576-.47 1.046-1.046 1.046h-9.974c-.576 0-1.045-.47-1.045-1.045v-8.056c0-.576.47-1.046 1.045-1.046Z" clip-rule="evenodd"/><path fill="#FFD400" fill-rule="evenodd" d="M28.626 39.646h.36a1.044 1.044 0 0 1 1.046 1.046v5.14c0 .576-.47 1.046-1.045 1.046h-.904c.323-.178.543-.522.543-.916v-6.316ZM24.444 39.646 23.1 37.325a1.16 1.16 0 0 0-1.028-.594h-3.06c-.576 0-1.045.47-1.045 1.046v1.87h6.476Z" clip-rule="evenodd"/><path fill="#FFEB85" fill-rule="evenodd" d="M1.795 36.731h3.06c.436 0 .81.216 1.028.594l1.343 2.321h4.543c.576 0 1.045.47 1.045 1.046v5.14c0 .576-.47 1.046-1.045 1.046H1.795c-.576 0-1.045-.47-1.045-1.045v-8.056c0-.576.47-1.046 1.045-1.046Z" clip-rule="evenodd"/><path fill="#FFD400" fill-rule="evenodd" d="M11.408 39.646h.361a1.045 1.045 0 0 1 1.046 1.046v5.14c0 .576-.47 1.046-1.046 1.046h-.904c.323-.178.543-.522.543-.916v-6.316ZM7.226 39.646l-1.343-2.321a1.16 1.16 0 0 0-1.028-.594h-3.06c-.576 0-1.045.47-1.045 1.046v1.87h6.476Z" clip-rule="evenodd"/><path fill="#FFEB85" fill-rule="evenodd" d="M13.498 1.122h6.444c.918 0 1.706.454 2.165 1.249l2.827 4.889h9.568c1.212 0 2.201.989 2.201 2.201v10.827a2.206 2.206 0 0 1-2.201 2.201H13.498a2.206 2.206 0 0 1-2.201-2.201V3.323c0-1.212.989-2.201 2.201-2.201Z" clip-rule="evenodd"/><path fill="#FFD400" fill-rule="evenodd" d="M33.742 7.26h.76a2.2 2.2 0 0 1 1.73.844c.306.388.471.863.471 1.357v10.827c0 1.212-.989 2.201-2.201 2.201h-1.905a2.205 2.205 0 0 0 1.145-1.93V7.26ZM24.934 7.26l-2.827-4.89a2.443 2.443 0 0 0-2.165-1.248h-6.444a2.206 2.206 0 0 0-2.201 2.201V7.26h13.637Z" clip-rule="evenodd"/><path fill="#8FBC5D" fill-rule="evenodd" d="M42.116 32.551a.75.75 0 0 1-1.5 0v-2.277H24.75v2.277a.75.75 0 0 1-1.5 0v-2.277H7.384v2.277a.75.75 0 0 1-1.5 0v-3.027a.75.75 0 0 1 .75-.75H23.25V26.67a.75.75 0 0 1 1.5 0v2.104h16.616a.75.75 0 0 1 .75.75v3.027Z" clip-rule="evenodd"/></svg>