<svg width="48" height="48" fill="none" xmlns="http://www.w3.org/2000/svg"><g clip-path="url(#a)"><path d="M42.056 23.212c-.337-.478-8.1-11.868-18.056-11.868-9.956 0-17.719 11.39-18.056 11.868a1.452 1.452 0 0 0 0 1.575c.337.479 8.1 11.87 18.056 11.87 9.956 0 17.719-11.391 18.056-11.87.31-.478.31-1.096 0-1.575Z" fill="#E3F0FC"/><path d="M42.056 24.787c-.337.479-8.1 11.87-18.056 11.87V11.343c9.956 0 17.719 11.39 18.056 11.868.31.479.31 1.097 0 1.575Z" fill="#E3F0FC"/><path d="M24 16.969A7.034 7.034 0 0 0 16.969 24 7.034 7.034 0 0 0 24 31.031 7.034 7.034 0 0 0 31.031 24 7.034 7.034 0 0 0 24 16.969Z" fill="#86B3FE"/><path d="M31.031 24A7.034 7.034 0 0 1 24 31.031V16.97A7.034 7.034 0 0 1 31.031 24Z" fill="#4D90FE"/><path d="M24 28.219A4.224 4.224 0 0 1 19.781 24 4.224 4.224 0 0 1 24 19.781 4.224 4.224 0 0 1 28.219 24 4.224 4.224 0 0 1 24 28.219Z" fill="#33333B"/><path d="M28.219 24A4.224 4.224 0 0 0 24 19.781v8.438A4.224 4.224 0 0 0 28.219 24Z" fill="#33333B"/><path d="M24 0C10.781 0 0 10.753 0 24c0 13.19 10.781 24 24 24 13.247 0 24-10.837 24-24C48 10.781 37.19 0 24 0Zm0 45.188C12.384 45.215 2.784 35.644 2.812 24c0-5.372 2.12-10.266 5.325-13.866L24 25.997l13.866 13.865c-3.6 3.207-8.494 5.325-13.866 5.325Zm15.862-7.322L10.134 8.137c3.6-3.206 8.494-5.325 13.866-5.325 11.644 0 21.188 9.544 21.188 21.188 0 5.4-2.12 10.266-5.326 13.866Z" fill="#FF6A58"/><path d="M48 24c0 13.163-10.753 24-24 24v-2.813c5.372 0 10.266-2.118 13.866-5.325L24 25.997v-3.994l15.862 15.863c3.207-3.6 5.325-8.466 5.325-13.866 0-11.644-9.543-21.188-21.187-21.188V0c13.19 0 24 10.781 24 24Z" fill="#E5322D"/></g><defs><clipPath id="a"><path fill="#fff" d="M0 0h48v48H0z"/></clipPath></defs></svg>