<svg width="48" height="48" fill="none" xmlns="http://www.w3.org/2000/svg"><path d="M24 19.688c5.437 0 9.844-4.408 9.844-9.844C33.844 4.407 29.437 0 24 0c-5.437 0-9.844 4.407-9.844 9.844 0 5.436 4.407 9.844 9.844 9.844Z" fill="#FFC233"/><path d="M33.844 9.844C33.844 4.416 29.428 0 24 0v19.688c5.428 0 9.844-4.416 9.844-9.844Z" fill="#EF9E02"/><path d="M24 16.875a7.031 7.031 0 1 0 0-14.062 7.031 7.031 0 0 0 0 14.062Z" fill="#FFCE5C"/><path d="M31.031 9.844A7.04 7.04 0 0 0 24 2.813v14.062a7.04 7.04 0 0 0 7.031-7.031Z" fill="#FFCE5C"/><path d="M25.064 9.135a25.044 25.044 0 0 1-.412-.15V6.534c.233.075.364.182.391.206a.703.703 0 0 0 1.129-.837c-.16-.227-.682-.68-1.52-.814v-.402a.703.703 0 1 0-1.406 0v.485a4.456 4.456 0 0 0-.161.045c-.861.259-1.504.994-1.679 1.919-.16.847.115 1.667.717 2.138.29.228.645.437 1.123.655v3.169c-.356-.045-.618-.158-1.032-.429a.703.703 0 1 0-.77 1.177c.705.46 1.199.618 1.802.666V15a.703.703 0 1 0 1.406 0v-.554c1.225-.299 2.01-1.34 2.182-2.366.224-1.33-.47-2.486-1.77-2.945Zm-2.074-.967c-.183-.144-.263-.447-.202-.772.048-.25.192-.542.458-.718v1.665a2.77 2.77 0 0 1-.256-.175Zm2.458 3.679a1.55 1.55 0 0 1-.796 1.108v-2.473c.891.348.835 1.13.796 1.365Z" fill="#FFC233"/><path d="M25.064 9.135a25.47 25.47 0 0 1-.412-.15V6.534c.233.075.364.182.391.206a.703.703 0 0 0 1.129-.837c-.16-.227-.682-.68-1.52-.814v-.402a.703.703 0 0 0-.652-.7V15.7a.703.703 0 0 0 .652-.7v-.554c1.225-.3 2.01-1.34 2.182-2.366.224-1.33-.47-2.486-1.77-2.945Zm.384 2.712a1.551 1.551 0 0 1-.796 1.108v-2.473c.89.348.835 1.13.796 1.365Z" fill="#EF9E02"/><path d="m36.946 25.986-7.338-7.338 1.043-.994c3.346-3.185 8.657-2.931 8.881-2.92.716.04 1.288.612 1.327 1.327.012.225.267 5.535-2.92 8.881l-.993 1.044Z" fill="#FF6A58"/><path d="m11.054 25.986-.993-1.044c-3.186-3.345-2.932-8.656-2.92-8.88a1.406 1.406 0 0 1 1.327-1.327c.224-.013 5.535-.267 8.88 2.92l1.044.993-7.338 7.338Z" fill="#FFB6AD"/><path d="M35.25 48h-5.625a1.406 1.406 0 0 1-1.398-1.25l-.583-5.251 9.012-3.736v8.83c0 .777-.63 1.407-1.406 1.407Z" fill="#FF6A58"/><path d="M18.375 48H12.75c-.777 0-1.406-.63-1.406-1.406v-8.83l9.012 3.735-.583 5.25A1.406 1.406 0 0 1 18.375 48Z" fill="#FFB6AD"/><path d="M24 44.25c-4.764 0-8.591-.925-11.377-2.748-1.603-1.05-2.845-2.396-3.689-4-.89-1.692-1.34-3.68-1.34-5.908 0-9.047 7.36-16.407 16.406-16.407s16.406 7.36 16.406 16.407c0 2.229-.45 4.216-1.34 5.907-.844 1.605-2.086 2.951-3.69 4C32.592 43.326 28.765 44.25 24 44.25Z" fill="#FDE4DF"/><path d="M35.377 41.502c1.603-1.05 2.845-2.396 3.689-4 .89-1.692 1.34-3.68 1.34-5.908 0-9.047-7.36-16.407-16.406-16.407V44.25c4.764 0 8.591-.925 11.377-2.748Z" fill="#FFB6AD"/><path d="M24 38.625c-3.619 0-6.563-2.523-6.563-5.625s2.944-5.625 6.563-5.625c3.619 0 6.563 2.523 6.563 5.625S27.619 38.625 24 38.625Z" fill="#FFB6AD"/><path d="M30.563 33c0-3.102-2.944-5.625-6.563-5.625v11.25c3.619 0 6.563-2.523 6.563-5.625Z" fill="#FF6A58"/><path d="M17.906 25.969a1.406 1.406 0 1 0 0-2.813 1.406 1.406 0 0 0 0 2.813ZM30.094 25.969a1.406 1.406 0 1 0 0-2.813 1.406 1.406 0 0 0 0 2.813Z" fill="#707078"/></svg>