<svg width="48" height="48" fill="none" xmlns="http://www.w3.org/2000/svg"><g clip-path="url(#a)"><path d="M37.942 48H10.058a3.983 3.983 0 0 1-3.983-3.983V3.983C6.075 1.783 7.858 0 10.058 0H28.34c1.018 0 1.998.39 2.737 1.09l9.602 9.084a3.983 3.983 0 0 1 1.246 2.894v30.949c0 2.2-1.783 3.983-3.983 3.983Z" fill="#E5F5D2"/><path d="M40.68 10.174 31.076 1.09C30.337.39 29.357 0 28.34 0H24v48h13.942c2.2 0 3.983-1.783 3.983-3.983v-30.95c0-1.094-.45-2.14-1.246-2.893Z" fill="#CFE2B8"/><path d="M31.37 11.95h10.394a3.982 3.982 0 0 0-1.084-1.776L31.077 1.09a3.981 3.981 0 0 0-1.7-.951v9.82c0 1.1.892 1.991 1.992 1.991Z" fill="#5F8C30"/><path d="M35.663 21.563H12.338c-.808 0-1.463-.63-1.463-1.407 0-.776.655-1.406 1.463-1.406h23.325c.807 0 1.462.63 1.462 1.406 0 .777-.655 1.407-1.462 1.407ZM35.663 29.063H12.338c-.808 0-1.463-.63-1.463-1.407 0-.776.655-1.406 1.463-1.406h23.325c.807 0 1.462.63 1.462 1.406 0 .777-.655 1.407-1.462 1.407ZM20.365 36.563h-8.027c-.808 0-1.463-.63-1.463-1.407 0-.776.655-1.406 1.463-1.406h8.027c.808 0 1.463.63 1.463 1.406 0 .777-.655 1.407-1.463 1.407Z" fill="#8FBC5D"/><path d="M37.125 20.156c0-.776-.655-1.406-1.462-1.406H24v2.813h11.663c.807 0 1.462-.63 1.462-1.407ZM35.663 26.25H24v2.813h11.663c.807 0 1.462-.63 1.462-1.407 0-.776-.655-1.406-1.462-1.406Z" fill="#5F8C30"/></g><defs><clipPath id="a"><path fill="#fff" d="M0 0h48v48H0z"/></clipPath></defs></svg>