<svg width="48" height="48" fill="none" xmlns="http://www.w3.org/2000/svg"><g clip-path="url(#a)"><path d="M42.373 32.054c-1.29 3.497-3.241 6.537-5.8 9.036-2.913 2.844-6.726 5.103-11.336 6.716a3.527 3.527 0 0 1-1.102.194h-.04a3.522 3.522 0 0 1-1.141-.193c-4.615-1.61-8.433-3.869-11.349-6.713-2.56-2.498-4.51-5.537-5.799-9.033-2.342-6.358-2.21-13.361-2.102-18.99l.002-.085c.022-.465.036-.953.043-1.493.04-2.646 2.144-4.836 4.79-4.983 5.52-.308 9.789-2.108 13.437-5.664l.032-.029a3.073 3.073 0 0 1 4.174 0l.031.03c3.649 3.555 7.918 5.355 13.437 5.663 2.647.147 4.75 2.337 4.79 4.983.008.543.022 1.03.043 1.492l.001.037c.107 5.639.24 12.656-2.111 19.032Z" fill="#4A7AAB"/><path d="M42.373 32.054c-1.29 3.497-3.241 6.537-5.8 9.035-2.913 2.845-6.726 5.104-11.335 6.717a3.527 3.527 0 0 1-1.102.194V0a3.08 3.08 0 0 1 2.046.817l.031.03c3.649 3.555 7.918 5.355 13.437 5.663 2.647.147 4.751 2.337 4.79 4.983.008.543.022 1.03.043 1.492l.002.037c.106 5.638.239 12.656-2.112 19.032Z" fill="#1D4772"/><path d="M36.056 24c0 6.582-5.344 11.94-11.92 11.963h-.042c-6.596 0-11.963-5.367-11.963-11.963 0-6.596 5.367-11.963 11.963-11.963h.042c6.576.024 11.92 5.382 11.92 11.963Z" fill="#F5F5FA"/><path d="M36.056 24c0 6.582-5.344 11.94-11.92 11.963V12.037c6.576.024 11.92 5.382 11.92 11.963Z" fill="#F5F5FA"/><path d="m29.523 22.277-5.387 5.389-1.164 1.164a1.404 1.404 0 0 1-.997.412c-.36 0-.72-.137-.996-.412l-2.503-2.504a1.408 1.408 0 1 1 1.992-1.992l1.508 1.508 5.556-5.556a1.407 1.407 0 1 1 1.991 1.991Z" fill="#4ACD86"/><path d="m29.524 22.277-5.388 5.389v-3.984l3.396-3.396a1.407 1.407 0 1 1 1.992 1.991Z" fill="#4ACD86"/></g><defs><clipPath id="a"><path fill="#fff" d="M0 0h48v48H0z"/></clipPath></defs></svg>