<svg width="48" height="48" fill="none" xmlns="http://www.w3.org/2000/svg"><g clip-path="url(#a)"><path d="M25.199 8.61h-14.62a.713.713 0 1 1 0-1.428h14.62a.714.714 0 1 1 0 1.427ZM11.224 13.84H3.698a.713.713 0 1 1 0-1.427h7.526a.713.713 0 1 1 0 1.427ZM10.966 18.702H7.993a.713.713 0 1 1 0-1.427h2.973a.714.714 0 1 1 0 1.427ZM7.993 22.223H.713a.713.713 0 1 1 0-1.427h7.28a.713.713 0 1 1 0 1.427ZM26.15 40.818H10.578a.714.714 0 1 1 0-1.427H26.15a.714.714 0 1 1 0 1.427ZM11.224 35.587H3.698a.713.713 0 1 1 0-1.427h7.526a.713.713 0 1 1 0 1.428ZM10.966 30.725H7.993a.713.713 0 1 1 0-1.427h2.973a.714.714 0 1 1 0 1.427ZM7.993 27.204H.713a.713.713 0 1 1 0-1.427h7.28a.713.713 0 1 1 0 1.427Z" fill="#2BB4C0"/><path d="M30.401 41.599C40.121 41.599 48 33.719 48 24 48 14.28 40.12 6.401 30.4 6.401c-9.72 0-17.599 7.88-17.599 17.599 0 9.72 7.88 17.599 17.6 17.599Z" fill="#7AD8E1"/><path d="M30.401 6.401c-.445 0-.887.017-1.324.05 9.101.677 16.275 8.275 16.275 17.549s-7.174 16.872-16.275 17.55c.437.032.878.049 1.324.049C40.121 41.599 48 33.719 48 24c0-9.72-7.88-17.599-17.599-17.599Z" fill="#2BB4C0"/><path d="M30.401 37.514c7.463 0 13.513-6.05 13.513-13.514 0-7.463-6.05-13.514-13.513-13.514S16.887 16.537 16.887 24c0 7.463 6.05 13.514 13.514 13.514Z" fill="#DCF2F5"/><path d="M30.401 10.486c-.411 0-.817.02-1.22.056 6.892.616 12.295 6.406 12.295 13.458 0 7.052-5.403 12.842-12.294 13.458.402.036.808.056 1.22.056 7.462 0 13.513-6.05 13.513-13.514 0-7.463-6.05-13.514-13.514-13.514Z" fill="#DCF2F5"/><path d="M30.401 15.42a.714.714 0 0 1-.713-.713v-1.089a.713.713 0 1 1 1.427 0v1.09c0 .393-.32.713-.714.713ZM36.972 18.143a.714.714 0 0 1-.505-1.218l.77-.77a.714.714 0 0 1 1.01 1.008l-.77.77a.71.71 0 0 1-.505.21ZM40.783 24.714h-1.09a.714.714 0 0 1 0-1.427h1.09a.714.714 0 1 1 0 1.427ZM37.742 32.055a.712.712 0 0 1-.505-.21l-.77-.77a.714.714 0 1 1 1.01-1.009l.77.77a.714.714 0 0 1-.505 1.219ZM30.401 35.095a.714.714 0 0 1-.713-.713v-1.09a.713.713 0 1 1 1.427 0v1.09c0 .394-.32.713-.714.713ZM23.06 32.055a.714.714 0 0 1-.505-1.218l.77-.77a.714.714 0 0 1 1.01 1.009l-.77.77a.711.711 0 0 1-.505.209ZM21.108 24.714H20.02a.714.714 0 0 1 0-1.427h1.09a.713.713 0 1 1 0 1.427ZM23.83 18.143a.711.711 0 0 1-.504-.21l-.77-.77a.714.714 0 0 1 1.009-1.009l.77.77a.714.714 0 0 1-.505 1.219Z" fill="#025057"/><path d="M33.525 24.714H30.4a.714.714 0 0 1-.713-.714v-6.012a.713.713 0 1 1 1.427 0v5.298h2.41a.714.714 0 1 1 0 1.428Z" fill="#2BB4C0"/></g><defs><clipPath id="a"><path fill="#fff" d="M0 0h48v48H0z"/></clipPath></defs></svg>