<svg xmlns="http://www.w3.org/2000/svg" xmlns:xlink="http://www.w3.org/1999/xlink" xml:space="preserve" id="Layer_1" x="0" y="0" style="enable-background:new 0 0 560 389" version="1.1" viewBox="0 0 560 389"><style>.st2{fill:#fff}.st11,.st7{fill-rule:evenodd;clip-rule:evenodd;fill:#ee6c4d}.st11{fill:#dab400}.st14{fill:#fff}.st14,.st15{fill-rule:evenodd;clip-rule:evenodd}.st15,.st16{fill:#f2e7ef}.st18{fill:#4acd86}</style><linearGradient id="SVGID_1_" x1="193.536" x2="175.86" y1="297.093" y2="257.023" gradientTransform="matrix(1 0 0 -1 0 390)" gradientUnits="userSpaceOnUse"><stop offset="0" style="stop-color:#e5322d"/><stop offset="1" style="stop-color:#ff6a58"/></linearGradient><circle cx="185.6" cy="110.8" r="39.5" style="fill:url(#SVGID_1_)"/><path d="M490.3 252.1c.6 0 1.1-.6 1.1-1.2v-5.5l6.6 7.2c.4.5 1.1.5 1.6 0 .4-.5.4-1.3 0-1.8l-6.6-7.2h5c.6 0 1.1-.6 1.1-1.2s-.5-1.2-1.1-1.2h-7.7c-.1 0-.3 0-.4.1-.3.1-.5.4-.6.7-.1.2-.1.3-.1.5l.1 8.5c-.1.6.4 1.1 1 1.1z" style="fill-rule:evenodd;clip-rule:evenodd;fill:#c0fddc"/><path d="M183.8 109.3c0-4.4 3.6-8 8-8H426c4.4 0 8 3.6 8 8v181.6c0 8.8-7.2 16-16 16H199.8c-8.8 0-16-7.2-16-16V109.3z" class="st2"/><path d="m406.7 304 41.3-41.3c3.1-3.1 8.2-3.1 11.3 0l18.1 18.1c3.1 3.1 3.1 8.2 0 11.3l-41.3 41.3c-3.1 3.1-8.2 3.1-11.3 0l-18.1-18.1c-3.1-3.1-3.1-8.2 0-11.3z" style="fill:none;stroke:#2bb4c0;stroke-width:2"/><path d="M446.7 310.6c-3.1-3.1-3.1-8.2 0-11.3l8.3-8.3c3.1-3.1 8.2-3.1 11.3 0l8.3 8.3c3.1 3.1 3.1 8.2 0 11.3l-8.3 8.3c-3.1 3.1-8.2 3.1-11.3 0l-8.3-8.3z" style="fill:#7ad8e1"/><path d="M183.8 108.6c0-4.4 3.6-8 8-8h234c4.4 0 8 3.6 8 8v2.1h-250v-2.1z" style="fill:#ffb6ad"/><defs><path id="SVGID_00000111181697099402437150000017309476525299568002_" d="M288.7 290.9h35v35h-35z" transform="rotate(-12.381 306.217 308.378)"/></defs><clipPath id="SVGID_00000159441598382312740630000009840776913107457466_"><use xlink:href="#SVGID_00000111181697099402437150000017309476525299568002_" style="overflow:visible"/></clipPath><g style="clip-path:url(#SVGID_00000159441598382312740630000009840776913107457466_)"><path d="m289.2 294.5 14.9-3.3c1.2-.3 1.7-.2 2.2-.1.5.1.9.4 1.3.8.3.4.6.8.8 2l3.3 14.9c.3 1.2.2 1.7.1 2.2-.1.5-.4.9-.8 1.3-.4.3-.8.6-2 .8l-14.9 3.3c-1.2.3-1.7.2-2.2.1-.5-.1-.9-.4-1.3-.8s-.6-.8-.8-2l-3.3-14.9c-.3-1.2-.2-1.7-.1-2.2.1-.5.4-.9.8-1.3s.8-.6 2-.8z" class="st7"/><path d="m323.3 322.3-14.9 3.3c-1.2.3-1.7.2-2.2.1-.5-.1-.9-.4-1.3-.8-.3-.4-.6-.8-.8-2l-3.3-14.9c-.3-1.2-.2-1.7-.1-2.2.1-.5.4-.9.8-1.3.4-.3.8-.6 2-.8l14.9-3.3c1.2-.3 1.7-.2 2.2-.1.5.1.9.4 1.3.8.3.4.6.8.8 2L326 318c.3 1.2.2 1.7.1 2.2-.1.5-.4.9-.8 1.3-.4.3-.8.5-2 .8z" class="st7"/><path d="M299.3 299.8c-.3.1-.5.4-.5.7l.6 2.6-6-3.8c-.3-.2-.7-.1-.8.2-.2.3-.1.7.2.8l6 3.8-2.6.6c-.3.1-.5.4-.5.7.1.3.4.5.7.5l4.1-.9c.1 0 .2 0 .2-.1.1-.1.2-.2.3-.4v-.2l-.9-4c-.2-.3-.5-.5-.8-.5zM313.3 316.8c.3-.1.5-.4.5-.7l-.6-2.6 6 3.8c.3.2.7.1.8-.2.2-.3.1-.7-.2-.8l-6-3.8 2.6-.6c.3-.1.5-.4.5-.7-.1-.3-.4-.5-.7-.5l-4.1.9c-.1 0-.2 0-.2.1-.1.1-.2.2-.3.4v.2l.9 4c.1.4.5.6.8.5zM304 311.6c.3.2.7.1.9-.2.2-.3.1-.7-.2-.9-.3-.2-.7-.1-.9.2-.2.3-.1.7.2.9zM305.8 308.8c.3.2.7.1.9-.2.2-.3.1-.7-.2-.9-.3-.2-.7-.1-.9.2-.2.3-.1.7.2.9zM307.6 306c.3.2.7.1.9-.2.2-.3.1-.7-.2-.9-.3-.2-.7-.1-.9.2-.2.3-.1.7.2.9z" class="st2"/></g><defs><path id="SVGID_00000011746322823101727340000017713144995775082158_" d="M486.3 118.2h37.4v37.4h-37.4z" transform="rotate(-11.246 505.13 136.966)"/></defs><clipPath id="SVGID_00000041996311399366701390000011793114268956969375_"><use xlink:href="#SVGID_00000011746322823101727340000017713144995775082158_" style="overflow:visible"/></clipPath><g style="clip-path:url(#SVGID_00000041996311399366701390000011793114268956969375_)"><path d="m507.1 155.6 16.1-3.2c1.3-.3 1.8-.5 2.2-.9.4-.4.7-.8.9-1.3.2-.5.2-1-.1-2.4l-3.2-16.1c-.3-1.3-.5-1.8-.9-2.2-.4-.4-.8-.7-1.3-.9-.5-.2-1-.2-2.4.1l-7.7 1.5 1.4 7c.4 1.8.3 2.5.1 3.2-.2.7-.6 1.4-1.2 1.8-.6.5-1.2.8-3 1.2l-7 1.4 1.5 7.7c.3 1.3.5 1.8.8 2.2.4.4.8.7 1.3.9.7.2 1.2.2 2.5 0z" style="fill-rule:evenodd;clip-rule:evenodd;fill:#ffd400"/><path d="M520.7 143.1c-.1-.4-.4-.6-.8-.5-.4.1-.6.4-.5.8l.6 2.8-4.5-3c-.3-.2-.7-.1-.9.2-.2.3-.1.7.2.9l4.5 3-2.9.6c-.4.1-.6.4-.5.8.1.4.4.6.8.5l4.4-.9c.1 0 .2 0 .2-.1.1-.1.2-.2.3-.4v-.3l-.9-4.4z" class="st2"/><path d="m486.8 121.5 16.1-3.2c1.3-.3 1.8-.2 2.4-.1.5.2 1 .5 1.3.9.4.4.6.9.9 2.2l3.2 16.1c.3 1.3.2 1.8.1 2.4-.2.5-.5 1-.9 1.3-.4.4-.9.6-2.2.8l-16.1 3.2c-1.3.3-1.8.2-2.4.1s-1-.5-1.3-.9c-.4-.4-.6-.9-.8-2.2l-3.2-16.1c-.3-1.3-.2-1.8-.1-2.4.2-.5.5-1 .9-1.3.4-.3.8-.5 2.1-.8z" style="fill-rule:evenodd;clip-rule:evenodd;fill:#fff3b6"/><path d="M501.9 125c.8-.2 1.6.4 1.8 1.2.2.8-.4 1.6-1.2 1.8-.8.2-1.6-.4-1.8-1.2-.2-.9.4-1.7 1.2-1.8zM495.8 136.1l-4.6.9c-.1 0-.1 0-.2-.1 0-.1-.1-.1 0-.2l3.2-9c0-.1.2-.2.3-.1l3.7 4.2 1.5-2.3.1-.1h.1l5.5 4.3c.1 0 .1.1.1.1 0 .1 0 .2-.1.2l-4.6.9-5 1.2z" class="st11"/></g><defs><path id="SVGID_00000155105406422200100080000006100347011272470966_" d="M400.1 49h33.8v33.8h-33.8z"/></defs><clipPath id="SVGID_00000024721168635975833710000000702942759861817243_"><use xlink:href="#SVGID_00000155105406422200100080000006100347011272470966_" style="overflow:visible"/></clipPath><g style="clip-path:url(#SVGID_00000024721168635975833710000000702942759861817243_)"><path d="M405.6 49h23c1.9 0 2.6.2 3.3.6.7.4 1.2.9 1.6 1.6.4.7.6 1.4.6 3.3v23c0 1.9-.2 2.6-.6 3.3-.4.7-.9 1.2-1.6 1.6-.7.4-1.4.6-3.3.6h-23c-1.9 0-2.6-.2-3.3-.6-.7-.4-1.2-.9-1.6-1.6-.4-.7-.6-1.4-.6-3.3v-23c0-1.9.2-2.6.6-3.3.4-.7.9-1.2 1.6-1.6.7-.4 1.4-.6 3.3-.6z" style="fill-rule:evenodd;clip-rule:evenodd;fill:#ab6993"/><path d="M419.3 63.1c.1-.3.5-.5.8-.2l1 .9c.3.2.2.7-.1.8l-1.6.8h-.1c-.1 0-.3 0-.3-.1-.1-.1-.2-.3-.2-.5l.5-1.7zM425 55.6c.5-.6 1.3-.6 1.9-.2h.1l.4.3c.3.2.5.6.5 1 0 .3-.1.7-.3 1v.1l-4.6 5.4c-.4.4-1 .5-1.4.1l-1-.8c-.4-.4-.5-1-.1-1.4l4.5-5.5z" class="st14"/><path d="M413.4 70.1c0-.3.2-.5.5-.5h2.5c.3 0 .5.2.5.5s-.2.5-.5.5h-2.5c-.3.1-.5-.2-.5-.5zM413.4 61.9c0-.3.2-.5.5-.5h2.5c.3 0 .5.2.5.5s-.2.5-.5.5h-2.5c-.3 0-.5-.3-.5-.5z" class="st15"/><path d="M415.1 61.9c.3 0 .5.2.5.5v7.3c0 .3-.2.5-.5.5s-.5-.2-.5-.5v-7.3c0-.3.2-.5.5-.5z" class="st15"/><path d="M408.3 56.8c-.2 0-.3.1-.3.3v17.6c0 .2.1.3.3.3h17.6c.2 0 .3-.1.3-.3V63.3c0-.2-.2-.3-.3-.3-.2 0-.3.1-.3.3v11.1h-16.9V57.5h11.7c.2 0 .3-.1.3-.3 0-.2-.1-.3-.3-.3h-12.1z" class="st2"/><path d="M408.3 55.1c1.1 0 2 .9 2 2s-.9 2-2 2-2-.9-2-2c-.1-1.1.8-2 2-2zM408.3 72.7c1.1 0 2 .9 2 2s-.9 2-2 2-2-.9-2-2c-.1-1.1.8-2 2-2zM425.9 72.7c1.1 0 2 .9 2 2s-.9 2-2 2-2-.9-2-2c-.1-1.1.8-2 2-2z" class="st16"/></g><path d="m438.6 192.1 20.3 5.9c1.7.5 2.2.8 2.7 1.3s.8 1.1 1 1.8c.1.7.1 1.4-.3 3l-5.9 20.3c-.5 1.7-.8 2.2-1.3 2.7s-1.1.8-1.8 1c-.7.1-1.4.1-3-.3l-20.3-5.9c-1.7-.5-2.2-.8-2.7-1.3s-.8-1.1-1-1.8c-.1-.7-.1-1.4.3-3l5.9-20.3c.5-1.7.8-2.2 1.3-2.7s1.1-.8 1.8-1c.7-.2 1.4-.2 3 .3z" style="fill-rule:evenodd;clip-rule:evenodd;fill:#4a7aab"/><path d="m440.2 207.4-2.8 8.7c0 .1 0 .1.1.2h.1l4.2-4c-.4-.6-.3-1.5.3-2 .7-.6 1.7-.6 2.3.1.6.7.6 1.7-.1 2.3-.6.5-1.4.6-2 .2l-4.2 4c-.1.1-.1.1 0 .2 0 0 .1.1.1 0l8.8-2.4c.2-.1.5-.2.5-.5l2.1-5.2c.1-.3.1-.6-.2-.9l-2.7-2.8c-.2-.2-.6-.3-.9-.2l-5.3 1.9c-.1-.1-.2.1-.3.4zM450.6 208.2l-3.9-4.1c-.2-.2-.2-.6.1-.9l1.7-1.6c.3-.3.7-.3.9-.1l3.9 4.1c.2.2.2.6-.1.9l-1.7 1.6c-.3.3-.7.3-.9.1z" class="st2"/><path d="M290.7 200.7c1.1.3 2 .9 2.6 1.7.6.8.9 1.8.9 3 0 1.7-.6 3.1-1.9 4-1.3 1-3 1.4-5.3 1.4-2.2 0-4-.5-5.3-1.4-1.3-1-1.9-2.3-1.9-4 0-1.2.3-2.2.9-3 .6-.8 1.5-1.4 2.6-1.7-1-.4-1.7-.9-2.3-1.7-.5-.8-.8-1.7-.8-2.8 0-1.6.6-2.9 1.8-3.8 1.2-.9 2.8-1.4 4.9-1.4 2.1 0 3.7.5 4.9 1.4 1.2.9 1.8 2.2 1.8 3.8 0 1.1-.3 2-.8 2.8s-1.2 1.4-2.1 1.7zm-3.7-6.9c-2.3 0-3.4.9-3.4 2.8 0 .9.3 1.7.8 2.2.6.5 1.4.7 2.6.7s2-.2 2.5-.7c.6-.5.9-1.2.9-2.2 0-1.9-1.1-2.8-3.4-2.8zm0 14.4c2.6 0 3.9-1 3.9-3s-1.3-3-3.9-3c-2.6 0-3.9 1-3.9 3s1.3 3 3.9 3zM303.3 211c-2.3 0-4-.8-5.2-2.5-1.2-1.7-1.8-4.2-1.8-7.5 0-3.2.6-5.7 1.8-7.4 1.2-1.7 2.9-2.6 5.2-2.6s4 .9 5.2 2.6c1.2 1.7 1.8 4.2 1.8 7.4s-.6 5.7-1.8 7.4c-1.2 1.7-2.9 2.6-5.2 2.6zm0-2.8c1.2 0 2.1-.6 2.7-1.7.6-1.2.8-3 .8-5.5s-.3-4.4-.8-5.5c-.6-1.1-1.5-1.7-2.7-1.7s-2.1.6-2.7 1.7c-.6 1.1-.8 3-.8 5.5s.3 4.3.8 5.5c.6 1.1 1.5 1.7 2.7 1.7zM320.5 210.3c-.2.3-.4.5-.6.7-.2.1-.5.2-.7.2-.3 0-.6-.1-.9-.4-.2-.2-.4-.5-.4-.9 0-.3.1-.6.3-.9l9.9-17.4c.2-.3.4-.5.6-.7.2-.1.5-.2.7-.2.3 0 .6.1.8.4.3.2.4.5.4.9 0 .3-.1.6-.3.9l-9.8 17.4zm-3-7.4c-1.5 0-2.7-.5-3.6-1.5-.9-1-1.3-2.5-1.3-4.5 0-1.9.4-3.4 1.3-4.4.9-1 2-1.5 3.6-1.5 1.5 0 2.7.5 3.6 1.5.9 1 1.3 2.5 1.3 4.4 0 2-.4 3.4-1.3 4.5-.9 1-2.1 1.5-3.6 1.5zm0-2.3c.7 0 1.2-.3 1.5-.9.3-.6.5-1.5.5-2.9 0-1.3-.2-2.2-.5-2.8-.3-.6-.8-.9-1.5-.9s-1.2.3-1.5.9c-.3.6-.5 1.5-.5 2.8 0 1.3.2 2.3.5 2.9.3.7.8.9 1.5.9zm13.6 10.3c-1.5 0-2.7-.5-3.6-1.5-.9-1-1.3-2.5-1.3-4.5 0-1.9.4-3.4 1.3-4.4.9-1 2.1-1.5 3.6-1.5s2.7.5 3.6 1.5c.9 1 1.3 2.5 1.3 4.4 0 2-.4 3.4-1.3 4.5-.9 1-2.1 1.5-3.6 1.5zm0-2.2c.7 0 1.2-.3 1.5-.9.3-.6.5-1.5.5-2.9 0-1.3-.2-2.2-.5-2.8-.3-.6-.8-.9-1.5-.9s-1.2.3-1.5.9c-.3.6-.5 1.5-.5 2.8 0 1.3.2 2.3.5 2.9.4.6.9.9 1.5.9z" class="st18"/><path d="M306.1 257.1c29.6 0 53.5-24.4 53.5-54.4s-23.9-54.4-53.5-54.4-53.5 24.4-53.5 54.4 23.9 54.4 53.5 54.4z" style="fill:none;stroke:#f5f5fa;stroke-width:8"/><path d="M358.5 205.5c3.2.3 5.6 3.1 5 6.2-1.9 10.8-6.9 20.8-14.4 28.9-8.8 9.5-20.5 15.9-33.3 17.9-12.8 2.1-25.9-.2-37.3-6.5a58.32 58.32 0 0 1-25.4-28.1c-5.1-11.9-6-25.2-2.6-37.8 3.4-12.5 10.9-23.5 21.3-31.3 10.4-7.8 23.1-11.8 36-11.5 11 .3 21.7 3.7 30.8 9.7 2.7 1.8 3 5.5 1 7.9-2 2.5-5.7 2.8-8.4 1.1-7.1-4.5-15.2-7-23.7-7.2-10.4-.2-20.5 3-28.8 9.2-8.3 6.2-14.3 15-17 25-2.7 10-2 20.7 2.1 30.2 4.1 9.6 11.2 17.5 20.3 22.5 9.1 5 19.6 6.8 29.8 5.2 10.2-1.7 19.6-6.7 26.7-14.4 5.7-6.2 9.6-13.8 11.3-22 .7-2.8 3.4-5.2 6.6-5zM102.4 216.6H163c3.4 0 6.2 2.8 6.2 6.2 0 3.4-2.8 6.2-6.2 6.2h-60.6c-3.4 0-6.2-2.8-6.2-6.2 0-3.4 2.8-6.2 6.2-6.2z" class="st18"/><path d="M38.2 238H163c3.4 0 6.2 2.8 6.2 6.2 0 3.4-2.8 6.2-6.2 6.2H38.2c-3.4 0-6.2-2.8-6.2-6.2 0-3.4 2.8-6.2 6.2-6.2z" style="fill:#1d9d58"/><path d="M38.2 261.2h51.7c3.4 0 6.2 2.8 6.2 6.2 0 3.4-2.8 6.2-6.2 6.2H38.2c-3.4 0-6.2-2.8-6.2-6.2 0-3.5 2.8-6.2 6.2-6.2z" class="st18"/></svg>