<svg xmlns="http://www.w3.org/2000/svg" xmlns:xlink="http://www.w3.org/1999/xlink" xml:space="preserve" id="Layer_1" x="0" y="0" style="enable-background:new 0 0 560 389" version="1.1" viewBox="0 0 560 389"><style>.st0{fill:#f5f5fa}.st1{fill:#292931}.st11{fill:#ff6a58}.st12{fill:#ffc233}.st13{fill:#0061ff}.st14{fill:#2bb4c0}.st16{fill:#1c769b}.st18{fill:#1d9d58}.st19{fill:#fff}.st20{fill:#e3f0fc}</style><path d="M53 59h65.4c2.2 0 4 1.8 4 4v65.3c0 2.2-1.8 4-4 4H53c-2.2 0-4-1.8-4-4V63c0-2.2 1.8-4 4-4zM441.6 59H507c2.2 0 4 1.8 4 4v65.3c0 2.2-1.8 4-4 4h-65.4c-2.2 0-4-1.8-4-4V63c0-2.2 1.8-4 4-4zM53 255.3h65.4c2.2 0 4 1.8 4 4v65.3c0 2.2-1.8 4-4 4H53c-2.2 0-4-1.8-4-4v-65.3c0-2.2 1.8-4 4-4zM441.6 255.7H507c2.2 0 4 1.8 4 4V325c0 2.2-1.8 4-4 4h-65.4c-2.2 0-4-1.8-4-4v-65.3c0-2.2 1.8-4 4-4z" class="st0"/><path d="M483.8 265.7c-2.9.2-6.2 2-8.2 4.4-1.8 2.2-3.3 5.4-2.7 8.5 3.1.1 6.4-1.8 8.3-4.2 1.7-2.3 3.1-5.5 2.6-8.7z" class="st1"/><path d="M495.1 283.7c-2.8-3.5-6.6-5.5-10.3-5.5-4.8 0-6.9 2.3-10.2 2.3-3.5 0-6.1-2.3-10.3-2.3-4.1 0-8.5 2.5-11.3 6.8-3.9 6-3.2 17.4 3.1 27.1 2.3 3.5 5.3 7.4 9.2 7.4 3.5 0 4.5-2.3 9.3-2.3 4.8 0 5.7 2.3 9.2 2.3 4 0 7.1-4.3 9.4-7.8 1.6-2.5 2.2-3.7 3.5-6.5-9.2-3.5-10.6-16.5-1.6-21.5z" class="st1"/><path d="M53 157.2h65.4c2.2 0 4 1.8 4 4v65.3c0 2.2-1.8 4-4 4H53c-2.2 0-4-1.8-4-4v-65.3c0-2.2 1.8-4 4-4z" style="fill:#e5f5d2"/><path d="M441.2 157.2h65.4c2.2 0 4 1.8 4 4v65.3c0 2.2-1.8 4-4 4h-65.4c-2.2 0-4-1.8-4-4v-65.3c0-2.2 1.8-4 4-4z" style="fill:#dcf2f5"/><path d="M246.8 255.7h65.4c2.2 0 4 1.8 4 4V325c0 2.2-1.8 4-4 4h-65.4c-2.2 0-4-1.8-4-4v-65.3c0-2.2 1.8-4 4-4zM246.8 59h65.4c2.2 0 4 1.8 4 4v65.3c0 2.2-1.8 4-4 4h-65.4c-2.2 0-4-1.8-4-4V63c0-2.2 1.8-4 4-4zM247.1 157.2h65.4c2.2 0 4 1.8 4 4v65.3c0 2.2-1.8 4-4 4h-65.4c-2.2 0-4-1.8-4-4v-65.3c0-2.2 1.8-4 4-4z" class="st0"/><path d="M150 59h65.4c2.2 0 4 1.8 4 4v65.3c0 2.2-1.8 4-4 4H150c-2.2 0-4-1.8-4-4V63c0-2.2 1.8-4 4-4z" style="fill:#e1c4d6"/><path d="M150 255.3h65.4c2.2 0 4 1.8 4 4v65.3c0 2.2-1.8 4-4 4H150c-2.2 0-4-1.8-4-4v-65.3c0-2.2 1.8-4 4-4z" style="fill:#fbe8e2"/><path d="M344.1 157.2h65.4c2.2 0 4 1.8 4 4v65.3c0 2.2-1.8 4-4 4h-65.4c-2.2 0-4-1.8-4-4v-65.3c0-2.2 1.8-4 4-4z" style="fill:#e4ecfc"/><path d="m63.1 113.2 2.4 4.1c.5.9 1.2 1.5 2 2l8.5-6v-8.7l-8.5-3.8-8.5 3.8c0 1 .2 1.9.7 2.8l3.4 5.8z" style="fill:#06d"/><path d="m86 87.4.4-11.3-8.9-3.4c-.8.5-1.5 1.2-2 2l-15.7 27.1c-.5.9-.7 1.8-.7 2.8h17L86 87.4z" style="fill:#00ad3c"/><path d="m86 87.4 8.2-4.4.4-10.3c-.8-.5-1.8-.7-2.8-.7H80.4c-1 0-1.9.3-2.8.7L86 87.4z" style="fill:#00831e"/><path d="M95.9 104.7h-20l-8.5 14.7c.8.5 1.8.7 2.8.7l31.4.1c1 0 1.9-.3 2.8-.7v-9.9l-8.5-4.9z" style="fill:#0084ff"/><path d="M104.4 119.4c.8-.5 1.5-1.2 2-2l1-1.7 4.7-8.2c.5-.9.7-1.8.7-2.8l-9.8-5.2-7.1 5.1 8.5 14.8z" class="st11"/><path d="m104.4 88.4-7.8-13.6c-.5-.9-1.2-1.5-2-2L86 87.4l9.9 17.3h17c0-1-.2-1.9-.7-2.8l-7.8-13.5z" class="st12"/><path d="m279.8 179.4-13.5 8.6 13.5 8.6-13.5 8.6-13.5-8.6 13.5-8.6-13.5-8.6 13.5-8.6 13.5 8.6zM266.3 208l13.5-8.6 13.5 8.6-13.5 8.6-13.5-8.6zM279.8 196.6l13.5-8.6-13.5-8.6 13.5-8.6 13.5 8.6-13.5 8.6 13.5 8.6-13.5 8.6-13.5-8.6z" class="st13"/><path d="M219.4 199.3c0-2.2-1.8-4-4-4s-4 1.8-4 4v17.6l-23.1-23.1c-1.6-1.6-4.1-1.6-5.6 0-1.6 1.6-1.6 4.1 0 5.6l23.1 23.1h-17.6c-2.2 0-4 1.8-4 4s1.8 4 4 4h27.2c.5 0 1-.1 1.5-.3 1-.4 1.7-1.2 2.1-2.1.2-.5.3-1 .3-1.5l.1-27.3z" class="st14"/><path d="M382.3 290.8c-2.2 0-4 1.8-4 4s1.8 4 4 4h17.6l-23.1 23.1c-1.6 1.6-1.6 4.1 0 5.6 1.6 1.6 4.1 1.6 5.6 0l23.1-23.1V322c0 2.2 1.8 4 4 4s4-1.8 4-4v-27.2c0-.5-.1-1-.3-1.5-.4-1-1.2-1.7-2.1-2.1-.5-.2-1-.3-1.5-.3l-27.3-.1z" class="st11"/><path d="M340.1 125.6c0 2.2 1.8 4 4 4s4-1.8 4-4V108l23.1 23.1c1.6 1.6 4.1 1.6 5.6 0 1.6-1.6 1.6-4.1 0-5.6l-23.1-23.1h17.6c2.2 0 4-1.8 4-4s-1.8-4-4-4h-27.2c-.5 0-1 .1-1.5.3-1 .4-1.7 1.2-2.1 2.1-.2.5-.3 1-.3 1.5l-.1 27.3z" style="fill:#ffd400"/><path d="M252.8 95.9c0 10.7 6.2 19.9 15.2 24.3L255.1 85c-1.5 3.3-2.3 7-2.3 10.9zM280.3 98.3l-8.1 23.5c2.4.7 5 1.1 7.6 1.1 3.1 0 6.2-.5 9-1.5-.1-.1-.1-.2-.2-.4l-8.3-22.7z" class="st16"/><path d="M298 94.6c0-3.3-1.2-5.6-2.2-7.4-1.4-2.2-2.7-4.1-2.7-6.3 0-2.5 1.9-4.8 4.5-4.8h.3c-4.8-4.4-11.2-7.1-18.2-7.1-9.4 0-17.7 4.8-22.5 12.1h1.7c2.8 0 7.2-.3 7.2-.3 1.5-.1 1.6 2 .2 2.2 0 0-1.5.2-3.1.3l9.8 29.2 5.9-17.7-4.2-11.5c-1.5-.1-2.8-.3-2.8-.3-1.5-.1-1.3-2.3.2-2.2 0 0 4.5.3 7.1.3 2.8 0 7.2-.3 7.2-.3 1.5-.1 1.6 2 .2 2.2 0 0-1.5.2-3.1.3l9.7 29 2.7-9c1.2-3.7 2.1-6.4 2.1-8.7zM303.6 85.8c0 2.7-.5 5.8-2.1 9.7l-8.2 23.8c8-4.7 13.4-13.4 13.4-23.3 0-4.7-1.2-9.1-3.3-12.9.2.8.2 1.7.2 2.7z" class="st16"/><path d="M279.8 69c-8.5 0-16 3.9-20.9 10 4.3.9 9.1 1.4 14.1 1.4 9.5 0 18.1-1.8 24.6-4.7-4.8-4.2-11-6.7-17.8-6.7z" class="st14"/><defs><path id="SVGID_1_" d="M446.6 69h53.9v53.9h-53.9z"/></defs><clipPath id="SVGID_00000087385096774467499180000014917743635083647906_"><use xlink:href="#SVGID_1_" style="overflow:visible"/></clipPath><g style="clip-path:url(#SVGID_00000087385096774467499180000014917743635083647906_)"><path d="M454.5 87c-1.9 0-3.4 1.5-3.4 3.4v15.7c0 1.9 1.5 3.4 3.4 3.4s3.4-1.5 3.4-3.4V90.3c0-1.8-1.5-3.3-3.4-3.3zM492.7 87c-1.9 0-3.4 1.5-3.4 3.4v15.7c0 1.9 1.5 3.4 3.4 3.4s3.4-1.5 3.4-3.4V90.3c0-1.8-1.5-3.3-3.4-3.3zM486 87h-24.7c-.6 0-1.1.5-1.1 1.1v18c0 2.7 1.9 5 4.5 5.5v8c0 1.9 1.5 3.4 3.4 3.4s3.4-1.5 3.4-3.4v-7.9h4.5v7.9c0 1.9 1.5 3.4 3.4 3.4s3.4-1.5 3.4-3.4v-8c2.6-.5 4.5-2.8 4.5-5.5v-18c-.2-.6-.7-1.1-1.3-1.1zM481.8 73.6l2.7-2.7c.4-.4.5-1.1 0-1.6-.4-.4-1.1-.5-1.6 0l-3.2 3.2c-3.9-1.7-8.3-1.7-12.3 0l-3.2-3.2c-.4-.4-1.2-.4-1.6 0-.4.4-.4 1.1 0 1.6l2.7 2.7c-3.3 2.2-5.3 5.9-5.3 9.9 0 .6.5 1.1 1.1 1.1H486c.6 0 1.1-.5 1.1-1.1 0-3.9-2-7.6-5.3-9.9z" class="st18"/><path d="M468 80.2c.6 0 1.1-.5 1.1-1.1s-.5-1.1-1.1-1.1c-.6 0-1.1.5-1.1 1.1s.5 1.1 1.1 1.1zM479.2 80.2c.6 0 1.1-.5 1.1-1.1s-.5-1.1-1.1-1.1c-.6 0-1.1.5-1.1 1.1s.5 1.1 1.1 1.1z" class="st19"/></g><path d="M108.8 291.7c.5-7.2-6.1-12.7-13.1-11.1-1.4-6.4-7.1-11.1-13.9-11.1-8 0-14.5 6.7-14.2 14.8-7 0-12.7 5.7-12.7 12.7 0 6.9 5.4 12.4 12.2 12.7H108c5 0 9-4 9-9 .1-4.7-3.6-8.6-8.2-9z" class="st20"/><path d="M108.8 291.7c.5-7.2-6.1-12.7-13.1-11.1-1.4-6.4-7.1-11.1-13.9-11.1-2.2 0-4.4.5-6.3 1.4.5 0 1-.1 1.4-.1 6.8 0 12.5 4.8 13.9 11.1 7-1.7 13.6 3.9 13.1 11.1 4.6.4 8.3 4.3 8.3 9 0 3.2-1.7 6.1-4.3 7.7 5 0 9-4 9-9 .2-4.7-3.5-8.6-8.1-9z" class="st20"/><path d="M300.1 293.2h5.1c.9 0 1.6-.7 1.6-1.6v-15.2c0-.9-.7-1.6-1.6-1.6h-13.7v-3.5a6.7 6.7 0 0 0-13.4 0v3.5h-13.7c-.9 0-1.6.7-1.6 1.6V290h-3.5a6.7 6.7 0 0 0 0 13.4h3.5V317c0 .9.7 1.6 1.6 1.6h15.2c.9 0 1.6-.7 1.6-1.6v-5.1c0-1.9 1.6-3.5 3.5-3.5s3.5 1.6 3.5 3.5v5.1c0 .9.7 1.6 1.6 1.6H305c.9 0 1.6-.7 1.6-1.6v-15.2c0-.9-.7-1.6-1.6-1.6h-5.1c-1.9 0-3.5-1.6-3.5-3.5.2-1.9 1.8-3.5 3.7-3.5z" style="fill:#ffce5c"/><path d="M299.9 293.2h5.2c.9 0 1.6-.7 1.6-1.6v-15.2c0-.9-.7-1.6-1.6-1.6h-14v-3.5c0-3.7-3.1-6.7-6.8-6.7v43.8c2 0 3.6 1.6 3.6 3.5v5.1c0 .9.7 1.6 1.6 1.6h15.6c.9 0 1.6-.7 1.6-1.6v-15.2c0-.9-.7-1.6-1.6-1.6h-5.2c-2 0-3.6-1.6-3.6-3.5.1-1.9 1.7-3.5 3.6-3.5z" class="st12"/></svg>